<mxfile host="app.diagrams.net" modified="2024-03-16T08:54:34.656Z" agent="Mozilla/5.0 (Windows NT 10.0; Win64; x64) AppleWebKit/537.36 (KHTML, like Gecko) Chrome/122.0.0.0 Safari/537.36" etag="YjGrLvG7LUbSpbl3sSnF" version="23.0.2" type="github">
  <diagram id="C5RBs43oDa-KdzZeNtuy" name="Page-1">
    <mxGraphModel dx="2700" dy="1171" grid="1" gridSize="10" guides="1" tooltips="1" connect="1" arrows="1" fold="1" page="1" pageScale="1" pageWidth="827" pageHeight="1169" math="0" shadow="0">
      <root>
        <mxCell id="WIyWlLk6GJQsqaUBKTNV-0" />
        <mxCell id="WIyWlLk6GJQsqaUBKTNV-1" parent="WIyWlLk6GJQsqaUBKTNV-0" />
        <mxCell id="WIyWlLk6GJQsqaUBKTNV-2" value="" style="rounded=0;html=1;jettySize=auto;orthogonalLoop=1;fontSize=11;endArrow=block;endFill=0;endSize=8;strokeWidth=1;shadow=0;labelBackgroundColor=none;edgeStyle=orthogonalEdgeStyle;" parent="WIyWlLk6GJQsqaUBKTNV-1" source="WIyWlLk6GJQsqaUBKTNV-3" target="wj4ukQUMfK4vD5jEf4c_-4" edge="1">
          <mxGeometry relative="1" as="geometry">
            <mxPoint x="220" y="170" as="targetPoint" />
          </mxGeometry>
        </mxCell>
        <mxCell id="wj4ukQUMfK4vD5jEf4c_-22" style="edgeStyle=orthogonalEdgeStyle;rounded=0;orthogonalLoop=1;jettySize=auto;html=1;" edge="1" parent="WIyWlLk6GJQsqaUBKTNV-1" source="WIyWlLk6GJQsqaUBKTNV-3" target="wj4ukQUMfK4vD5jEf4c_-21">
          <mxGeometry relative="1" as="geometry" />
        </mxCell>
        <mxCell id="WIyWlLk6GJQsqaUBKTNV-3" value="http://43.203.24.137:8080 접속" style="rounded=1;whiteSpace=wrap;html=1;fontSize=12;glass=0;strokeWidth=1;shadow=0;" parent="WIyWlLk6GJQsqaUBKTNV-1" vertex="1">
          <mxGeometry x="145" y="70" width="150" height="40" as="geometry" />
        </mxCell>
        <mxCell id="WIyWlLk6GJQsqaUBKTNV-8" value="사업가 로그인" style="rounded=0;html=1;jettySize=auto;orthogonalLoop=1;fontSize=11;endArrow=block;endFill=0;endSize=8;strokeWidth=1;shadow=0;labelBackgroundColor=none;edgeStyle=orthogonalEdgeStyle;" parent="WIyWlLk6GJQsqaUBKTNV-1" target="WIyWlLk6GJQsqaUBKTNV-11" edge="1">
          <mxGeometry x="0.0588" y="-20" relative="1" as="geometry">
            <mxPoint as="offset" />
            <mxPoint x="220" y="370" as="sourcePoint" />
            <Array as="points">
              <mxPoint x="220" y="400" />
              <mxPoint x="100" y="400" />
            </Array>
          </mxGeometry>
        </mxCell>
        <mxCell id="wj4ukQUMfK4vD5jEf4c_-10" style="edgeStyle=orthogonalEdgeStyle;rounded=0;orthogonalLoop=1;jettySize=auto;html=1;" edge="1" parent="WIyWlLk6GJQsqaUBKTNV-1" source="WIyWlLk6GJQsqaUBKTNV-11" target="wj4ukQUMfK4vD5jEf4c_-42">
          <mxGeometry relative="1" as="geometry">
            <mxPoint x="-20" y="440" as="targetPoint" />
          </mxGeometry>
        </mxCell>
        <mxCell id="wj4ukQUMfK4vD5jEf4c_-13" style="edgeStyle=orthogonalEdgeStyle;rounded=0;orthogonalLoop=1;jettySize=auto;html=1;" edge="1" parent="WIyWlLk6GJQsqaUBKTNV-1" source="WIyWlLk6GJQsqaUBKTNV-11" target="wj4ukQUMfK4vD5jEf4c_-12">
          <mxGeometry relative="1" as="geometry" />
        </mxCell>
        <mxCell id="WIyWlLk6GJQsqaUBKTNV-11" value="홈" style="rounded=1;whiteSpace=wrap;html=1;fontSize=12;glass=0;strokeWidth=1;shadow=0;" parent="WIyWlLk6GJQsqaUBKTNV-1" vertex="1">
          <mxGeometry x="40" y="420" width="120" height="40" as="geometry" />
        </mxCell>
        <mxCell id="wj4ukQUMfK4vD5jEf4c_-11" style="edgeStyle=orthogonalEdgeStyle;rounded=0;orthogonalLoop=1;jettySize=auto;html=1;" edge="1" parent="WIyWlLk6GJQsqaUBKTNV-1" source="wj4ukQUMfK4vD5jEf4c_-0" target="wj4ukQUMfK4vD5jEf4c_-43">
          <mxGeometry relative="1" as="geometry">
            <mxPoint x="440" y="440" as="targetPoint" />
          </mxGeometry>
        </mxCell>
        <mxCell id="wj4ukQUMfK4vD5jEf4c_-15" style="edgeStyle=orthogonalEdgeStyle;rounded=0;orthogonalLoop=1;jettySize=auto;html=1;" edge="1" parent="WIyWlLk6GJQsqaUBKTNV-1" source="wj4ukQUMfK4vD5jEf4c_-0" target="wj4ukQUMfK4vD5jEf4c_-14">
          <mxGeometry relative="1" as="geometry" />
        </mxCell>
        <mxCell id="wj4ukQUMfK4vD5jEf4c_-0" value="홈" style="rounded=1;whiteSpace=wrap;html=1;" vertex="1" parent="WIyWlLk6GJQsqaUBKTNV-1">
          <mxGeometry x="270" y="420" width="120" height="40" as="geometry" />
        </mxCell>
        <mxCell id="wj4ukQUMfK4vD5jEf4c_-7" style="edgeStyle=orthogonalEdgeStyle;rounded=0;orthogonalLoop=1;jettySize=auto;html=1;" edge="1" parent="WIyWlLk6GJQsqaUBKTNV-1" source="wj4ukQUMfK4vD5jEf4c_-3" target="wj4ukQUMfK4vD5jEf4c_-6">
          <mxGeometry relative="1" as="geometry" />
        </mxCell>
        <mxCell id="wj4ukQUMfK4vD5jEf4c_-3" value="로그인" style="rounded=1;whiteSpace=wrap;html=1;fontSize=12;glass=0;strokeWidth=1;shadow=0;" vertex="1" parent="WIyWlLk6GJQsqaUBKTNV-1">
          <mxGeometry x="160" y="230" width="120" height="40" as="geometry" />
        </mxCell>
        <mxCell id="wj4ukQUMfK4vD5jEf4c_-5" style="edgeStyle=orthogonalEdgeStyle;rounded=0;orthogonalLoop=1;jettySize=auto;html=1;" edge="1" parent="WIyWlLk6GJQsqaUBKTNV-1" source="wj4ukQUMfK4vD5jEf4c_-4" target="wj4ukQUMfK4vD5jEf4c_-3">
          <mxGeometry relative="1" as="geometry" />
        </mxCell>
        <mxCell id="wj4ukQUMfK4vD5jEf4c_-4" value="회원가입" style="rounded=1;whiteSpace=wrap;html=1;" vertex="1" parent="WIyWlLk6GJQsqaUBKTNV-1">
          <mxGeometry x="160" y="150" width="120" height="40" as="geometry" />
        </mxCell>
        <mxCell id="wj4ukQUMfK4vD5jEf4c_-8" style="edgeStyle=orthogonalEdgeStyle;rounded=0;orthogonalLoop=1;jettySize=auto;html=1;" edge="1" parent="WIyWlLk6GJQsqaUBKTNV-1" source="wj4ukQUMfK4vD5jEf4c_-6" target="wj4ukQUMfK4vD5jEf4c_-0">
          <mxGeometry relative="1" as="geometry" />
        </mxCell>
        <mxCell id="wj4ukQUMfK4vD5jEf4c_-9" value="개발자 로그인" style="edgeLabel;html=1;align=center;verticalAlign=middle;resizable=0;points=[];" vertex="1" connectable="0" parent="wj4ukQUMfK4vD5jEf4c_-8">
          <mxGeometry x="-0.0133" y="2" relative="1" as="geometry">
            <mxPoint x="6" y="-18" as="offset" />
          </mxGeometry>
        </mxCell>
        <mxCell id="wj4ukQUMfK4vD5jEf4c_-6" value="사업가, 개발자" style="rhombus;whiteSpace=wrap;html=1;" vertex="1" parent="WIyWlLk6GJQsqaUBKTNV-1">
          <mxGeometry x="160" y="300" width="120" height="80" as="geometry" />
        </mxCell>
        <mxCell id="wj4ukQUMfK4vD5jEf4c_-12" value="프로젝트 등록" style="rounded=1;whiteSpace=wrap;html=1;" vertex="1" parent="WIyWlLk6GJQsqaUBKTNV-1">
          <mxGeometry x="40" y="510" width="120" height="40" as="geometry" />
        </mxCell>
        <mxCell id="wj4ukQUMfK4vD5jEf4c_-17" style="edgeStyle=orthogonalEdgeStyle;rounded=0;orthogonalLoop=1;jettySize=auto;html=1;" edge="1" parent="WIyWlLk6GJQsqaUBKTNV-1" source="wj4ukQUMfK4vD5jEf4c_-14" target="wj4ukQUMfK4vD5jEf4c_-16">
          <mxGeometry relative="1" as="geometry" />
        </mxCell>
        <mxCell id="wj4ukQUMfK4vD5jEf4c_-14" value="프로필 등록 접속" style="rounded=1;whiteSpace=wrap;html=1;" vertex="1" parent="WIyWlLk6GJQsqaUBKTNV-1">
          <mxGeometry x="270" y="510" width="120" height="40" as="geometry" />
        </mxCell>
        <mxCell id="wj4ukQUMfK4vD5jEf4c_-19" style="edgeStyle=orthogonalEdgeStyle;rounded=0;orthogonalLoop=1;jettySize=auto;html=1;" edge="1" parent="WIyWlLk6GJQsqaUBKTNV-1" source="wj4ukQUMfK4vD5jEf4c_-16" target="wj4ukQUMfK4vD5jEf4c_-18">
          <mxGeometry relative="1" as="geometry">
            <Array as="points">
              <mxPoint x="180" y="630" />
            </Array>
          </mxGeometry>
        </mxCell>
        <mxCell id="wj4ukQUMfK4vD5jEf4c_-24" style="edgeStyle=orthogonalEdgeStyle;rounded=0;orthogonalLoop=1;jettySize=auto;html=1;" edge="1" parent="WIyWlLk6GJQsqaUBKTNV-1" source="wj4ukQUMfK4vD5jEf4c_-16" target="wj4ukQUMfK4vD5jEf4c_-23">
          <mxGeometry relative="1" as="geometry" />
        </mxCell>
        <mxCell id="wj4ukQUMfK4vD5jEf4c_-26" style="edgeStyle=orthogonalEdgeStyle;rounded=0;orthogonalLoop=1;jettySize=auto;html=1;" edge="1" parent="WIyWlLk6GJQsqaUBKTNV-1" source="wj4ukQUMfK4vD5jEf4c_-16" target="wj4ukQUMfK4vD5jEf4c_-33">
          <mxGeometry relative="1" as="geometry">
            <mxPoint x="470" y="720" as="targetPoint" />
          </mxGeometry>
        </mxCell>
        <mxCell id="wj4ukQUMfK4vD5jEf4c_-16" value="프로필 계약 또는 프로필 등록 또는 다른 사람 프로필 보기" style="rhombus;whiteSpace=wrap;html=1;" vertex="1" parent="WIyWlLk6GJQsqaUBKTNV-1">
          <mxGeometry x="270" y="585" width="120" height="85" as="geometry" />
        </mxCell>
        <mxCell id="wj4ukQUMfK4vD5jEf4c_-32" style="edgeStyle=orthogonalEdgeStyle;rounded=0;orthogonalLoop=1;jettySize=auto;html=1;" edge="1" parent="WIyWlLk6GJQsqaUBKTNV-1" source="wj4ukQUMfK4vD5jEf4c_-18" target="wj4ukQUMfK4vD5jEf4c_-31">
          <mxGeometry relative="1" as="geometry" />
        </mxCell>
        <mxCell id="wj4ukQUMfK4vD5jEf4c_-18" value="계약된 프로필 확인" style="rounded=1;whiteSpace=wrap;html=1;" vertex="1" parent="WIyWlLk6GJQsqaUBKTNV-1">
          <mxGeometry x="120" y="720" width="120" height="40" as="geometry" />
        </mxCell>
        <mxCell id="wj4ukQUMfK4vD5jEf4c_-78" style="edgeStyle=orthogonalEdgeStyle;rounded=0;orthogonalLoop=1;jettySize=auto;html=1;" edge="1" parent="WIyWlLk6GJQsqaUBKTNV-1" source="wj4ukQUMfK4vD5jEf4c_-21" target="wj4ukQUMfK4vD5jEf4c_-44">
          <mxGeometry relative="1" as="geometry" />
        </mxCell>
        <mxCell id="wj4ukQUMfK4vD5jEf4c_-21" value="anonymous" style="rounded=1;whiteSpace=wrap;html=1;" vertex="1" parent="WIyWlLk6GJQsqaUBKTNV-1">
          <mxGeometry x="-50" y="150" width="120" height="40" as="geometry" />
        </mxCell>
        <mxCell id="wj4ukQUMfK4vD5jEf4c_-29" style="edgeStyle=orthogonalEdgeStyle;rounded=0;orthogonalLoop=1;jettySize=auto;html=1;" edge="1" parent="WIyWlLk6GJQsqaUBKTNV-1" source="wj4ukQUMfK4vD5jEf4c_-23" target="wj4ukQUMfK4vD5jEf4c_-28">
          <mxGeometry relative="1" as="geometry" />
        </mxCell>
        <mxCell id="wj4ukQUMfK4vD5jEf4c_-23" value="프로필 등록" style="rounded=1;whiteSpace=wrap;html=1;" vertex="1" parent="WIyWlLk6GJQsqaUBKTNV-1">
          <mxGeometry x="270" y="780" width="120" height="40" as="geometry" />
        </mxCell>
        <mxCell id="wj4ukQUMfK4vD5jEf4c_-28" value="페이징 처리된 프로필 목록 확인 가능" style="rounded=0;whiteSpace=wrap;html=1;" vertex="1" parent="WIyWlLk6GJQsqaUBKTNV-1">
          <mxGeometry x="270" y="870" width="120" height="60" as="geometry" />
        </mxCell>
        <mxCell id="wj4ukQUMfK4vD5jEf4c_-30" value="인기 많은 프로필 순서대로 페이징 처리된 프로필 보기" style="rounded=0;whiteSpace=wrap;html=1;" vertex="1" parent="WIyWlLk6GJQsqaUBKTNV-1">
          <mxGeometry x="430" y="820" width="120" height="50" as="geometry" />
        </mxCell>
        <mxCell id="wj4ukQUMfK4vD5jEf4c_-31" value="비즈니스 계약 하기" style="rounded=0;whiteSpace=wrap;html=1;" vertex="1" parent="WIyWlLk6GJQsqaUBKTNV-1">
          <mxGeometry x="120" y="800" width="120" height="60" as="geometry" />
        </mxCell>
        <mxCell id="wj4ukQUMfK4vD5jEf4c_-34" style="edgeStyle=orthogonalEdgeStyle;rounded=0;orthogonalLoop=1;jettySize=auto;html=1;" edge="1" parent="WIyWlLk6GJQsqaUBKTNV-1" source="wj4ukQUMfK4vD5jEf4c_-33" target="wj4ukQUMfK4vD5jEf4c_-30">
          <mxGeometry relative="1" as="geometry" />
        </mxCell>
        <mxCell id="wj4ukQUMfK4vD5jEf4c_-33" value="다른 사람 프로필 보기" style="rounded=1;whiteSpace=wrap;html=1;" vertex="1" parent="WIyWlLk6GJQsqaUBKTNV-1">
          <mxGeometry x="430" y="710" width="120" height="60" as="geometry" />
        </mxCell>
        <mxCell id="wj4ukQUMfK4vD5jEf4c_-42" value="회원정보 수정 또는 삭제" style="rounded=0;whiteSpace=wrap;html=1;" vertex="1" parent="WIyWlLk6GJQsqaUBKTNV-1">
          <mxGeometry x="-130" y="420" width="110" height="40" as="geometry" />
        </mxCell>
        <mxCell id="wj4ukQUMfK4vD5jEf4c_-43" value="회원정보 수정 또는 삭제" style="rounded=0;whiteSpace=wrap;html=1;" vertex="1" parent="WIyWlLk6GJQsqaUBKTNV-1">
          <mxGeometry x="440" y="417.5" width="110" height="45" as="geometry" />
        </mxCell>
        <mxCell id="wj4ukQUMfK4vD5jEf4c_-44" value="" style="swimlane;startSize=0;" vertex="1" parent="WIyWlLk6GJQsqaUBKTNV-1">
          <mxGeometry x="-610" y="585" width="710" height="440" as="geometry" />
        </mxCell>
        <mxCell id="wj4ukQUMfK4vD5jEf4c_-49" style="edgeStyle=orthogonalEdgeStyle;rounded=0;orthogonalLoop=1;jettySize=auto;html=1;" edge="1" parent="wj4ukQUMfK4vD5jEf4c_-44" source="wj4ukQUMfK4vD5jEf4c_-45" target="wj4ukQUMfK4vD5jEf4c_-48">
          <mxGeometry relative="1" as="geometry" />
        </mxCell>
        <mxCell id="wj4ukQUMfK4vD5jEf4c_-45" value="개발자 찾기" style="rounded=1;whiteSpace=wrap;html=1;" vertex="1" parent="wj4ukQUMfK4vD5jEf4c_-44">
          <mxGeometry x="137" y="30" width="120" height="40" as="geometry" />
        </mxCell>
        <mxCell id="wj4ukQUMfK4vD5jEf4c_-73" style="edgeStyle=orthogonalEdgeStyle;rounded=0;orthogonalLoop=1;jettySize=auto;html=1;" edge="1" parent="wj4ukQUMfK4vD5jEf4c_-44" source="wj4ukQUMfK4vD5jEf4c_-46" target="wj4ukQUMfK4vD5jEf4c_-71">
          <mxGeometry relative="1" as="geometry" />
        </mxCell>
        <mxCell id="wj4ukQUMfK4vD5jEf4c_-46" value="프로젝트 찾기" style="rounded=1;whiteSpace=wrap;html=1;" vertex="1" parent="wj4ukQUMfK4vD5jEf4c_-44">
          <mxGeometry x="470" y="30" width="120" height="40" as="geometry" />
        </mxCell>
        <mxCell id="wj4ukQUMfK4vD5jEf4c_-51" style="edgeStyle=orthogonalEdgeStyle;rounded=0;orthogonalLoop=1;jettySize=auto;html=1;" edge="1" parent="wj4ukQUMfK4vD5jEf4c_-44" source="wj4ukQUMfK4vD5jEf4c_-48" target="wj4ukQUMfK4vD5jEf4c_-50">
          <mxGeometry relative="1" as="geometry" />
        </mxCell>
        <mxCell id="wj4ukQUMfK4vD5jEf4c_-54" style="edgeStyle=orthogonalEdgeStyle;rounded=0;orthogonalLoop=1;jettySize=auto;html=1;" edge="1" parent="wj4ukQUMfK4vD5jEf4c_-44" source="wj4ukQUMfK4vD5jEf4c_-48" target="wj4ukQUMfK4vD5jEf4c_-64">
          <mxGeometry relative="1" as="geometry">
            <mxPoint x="210" y="245" as="targetPoint" />
          </mxGeometry>
        </mxCell>
        <mxCell id="wj4ukQUMfK4vD5jEf4c_-55" style="edgeStyle=orthogonalEdgeStyle;rounded=0;orthogonalLoop=1;jettySize=auto;html=1;" edge="1" parent="wj4ukQUMfK4vD5jEf4c_-44">
          <mxGeometry relative="1" as="geometry">
            <mxPoint x="197" y="172" as="sourcePoint" />
            <mxPoint x="335" y="247" as="targetPoint" />
            <Array as="points">
              <mxPoint x="197" y="207" />
              <mxPoint x="335" y="207" />
            </Array>
          </mxGeometry>
        </mxCell>
        <mxCell id="wj4ukQUMfK4vD5jEf4c_-48" value="등록된 프로필 목록 또는 계약 전 개발자 목록, 계약 후 개발자 목록" style="rhombus;whiteSpace=wrap;html=1;" vertex="1" parent="wj4ukQUMfK4vD5jEf4c_-44">
          <mxGeometry x="102" y="90" width="190" height="80" as="geometry" />
        </mxCell>
        <mxCell id="wj4ukQUMfK4vD5jEf4c_-58" style="edgeStyle=orthogonalEdgeStyle;rounded=0;orthogonalLoop=1;jettySize=auto;html=1;" edge="1" parent="wj4ukQUMfK4vD5jEf4c_-44" source="wj4ukQUMfK4vD5jEf4c_-50" target="wj4ukQUMfK4vD5jEf4c_-56">
          <mxGeometry relative="1" as="geometry" />
        </mxCell>
        <mxCell id="wj4ukQUMfK4vD5jEf4c_-50" value="등록된 프로필 목록" style="rounded=1;whiteSpace=wrap;html=1;" vertex="1" parent="wj4ukQUMfK4vD5jEf4c_-44">
          <mxGeometry x="10" y="245" width="120" height="30" as="geometry" />
        </mxCell>
        <mxCell id="wj4ukQUMfK4vD5jEf4c_-53" value="계약 후 개발자 목록" style="rounded=0;whiteSpace=wrap;html=1;" vertex="1" parent="wj4ukQUMfK4vD5jEf4c_-44">
          <mxGeometry x="290" y="245" width="120" height="35" as="geometry" />
        </mxCell>
        <mxCell id="wj4ukQUMfK4vD5jEf4c_-61" style="edgeStyle=orthogonalEdgeStyle;rounded=0;orthogonalLoop=1;jettySize=auto;html=1;" edge="1" parent="wj4ukQUMfK4vD5jEf4c_-44" source="wj4ukQUMfK4vD5jEf4c_-56" target="wj4ukQUMfK4vD5jEf4c_-60">
          <mxGeometry relative="1" as="geometry" />
        </mxCell>
        <mxCell id="wj4ukQUMfK4vD5jEf4c_-56" value="프로필 조회" style="rounded=1;whiteSpace=wrap;html=1;" vertex="1" parent="wj4ukQUMfK4vD5jEf4c_-44">
          <mxGeometry x="10" y="315" width="120" height="25" as="geometry" />
        </mxCell>
        <mxCell id="wj4ukQUMfK4vD5jEf4c_-60" value="개발자 정보 조회" style="rounded=0;whiteSpace=wrap;html=1;" vertex="1" parent="wj4ukQUMfK4vD5jEf4c_-44">
          <mxGeometry x="10" y="365" width="120" height="45" as="geometry" />
        </mxCell>
        <mxCell id="wj4ukQUMfK4vD5jEf4c_-66" style="edgeStyle=orthogonalEdgeStyle;rounded=0;orthogonalLoop=1;jettySize=auto;html=1;" edge="1" parent="wj4ukQUMfK4vD5jEf4c_-44" source="wj4ukQUMfK4vD5jEf4c_-64" target="wj4ukQUMfK4vD5jEf4c_-65">
          <mxGeometry relative="1" as="geometry" />
        </mxCell>
        <mxCell id="wj4ukQUMfK4vD5jEf4c_-64" value="계약 전 개발자 목록" style="rounded=1;whiteSpace=wrap;html=1;" vertex="1" parent="wj4ukQUMfK4vD5jEf4c_-44">
          <mxGeometry x="150" y="245" width="120" height="35" as="geometry" />
        </mxCell>
        <mxCell id="wj4ukQUMfK4vD5jEf4c_-70" style="edgeStyle=orthogonalEdgeStyle;rounded=0;orthogonalLoop=1;jettySize=auto;html=1;" edge="1" parent="wj4ukQUMfK4vD5jEf4c_-44" source="wj4ukQUMfK4vD5jEf4c_-65" target="wj4ukQUMfK4vD5jEf4c_-69">
          <mxGeometry relative="1" as="geometry" />
        </mxCell>
        <mxCell id="wj4ukQUMfK4vD5jEf4c_-65" value="개발자 정보 조회" style="rounded=1;whiteSpace=wrap;html=1;" vertex="1" parent="wj4ukQUMfK4vD5jEf4c_-44">
          <mxGeometry x="150" y="313.5" width="120" height="28" as="geometry" />
        </mxCell>
        <mxCell id="wj4ukQUMfK4vD5jEf4c_-69" value="연락하기" style="rounded=0;whiteSpace=wrap;html=1;" vertex="1" parent="wj4ukQUMfK4vD5jEf4c_-44">
          <mxGeometry x="150" y="370" width="120" height="40" as="geometry" />
        </mxCell>
        <mxCell id="wj4ukQUMfK4vD5jEf4c_-74" style="edgeStyle=orthogonalEdgeStyle;rounded=0;orthogonalLoop=1;jettySize=auto;html=1;" edge="1" parent="wj4ukQUMfK4vD5jEf4c_-44" source="wj4ukQUMfK4vD5jEf4c_-71" target="wj4ukQUMfK4vD5jEf4c_-72">
          <mxGeometry relative="1" as="geometry" />
        </mxCell>
        <mxCell id="wj4ukQUMfK4vD5jEf4c_-71" value="등록된 프로젝트 확인" style="rounded=1;whiteSpace=wrap;html=1;" vertex="1" parent="wj4ukQUMfK4vD5jEf4c_-44">
          <mxGeometry x="470" y="110" width="120" height="60" as="geometry" />
        </mxCell>
        <mxCell id="wj4ukQUMfK4vD5jEf4c_-72" value="등록된 프로젝트 상세 내용 보기" style="rounded=0;whiteSpace=wrap;html=1;" vertex="1" parent="wj4ukQUMfK4vD5jEf4c_-44">
          <mxGeometry x="470" y="205" width="120" height="60" as="geometry" />
        </mxCell>
        <mxCell id="wj4ukQUMfK4vD5jEf4c_-75" value="" style="endArrow=none;dashed=1;html=1;rounded=0;" edge="1" parent="wj4ukQUMfK4vD5jEf4c_-44">
          <mxGeometry width="50" height="50" relative="1" as="geometry">
            <mxPoint x="10" y="352.5" as="sourcePoint" />
            <mxPoint x="280" y="345" as="targetPoint" />
            <Array as="points">
              <mxPoint x="140" y="352.5" />
              <mxPoint x="140" y="302.5" />
              <mxPoint x="280" y="303" />
              <mxPoint x="280" y="325" />
            </Array>
          </mxGeometry>
        </mxCell>
        <mxCell id="wj4ukQUMfK4vD5jEf4c_-76" value="" style="endArrow=none;dashed=1;html=1;rounded=0;" edge="1" parent="wj4ukQUMfK4vD5jEf4c_-44">
          <mxGeometry width="50" height="50" relative="1" as="geometry">
            <mxPoint x="460" y="185" as="sourcePoint" />
            <mxPoint x="600" y="185" as="targetPoint" />
          </mxGeometry>
        </mxCell>
        <mxCell id="wj4ukQUMfK4vD5jEf4c_-77" value="&lt;font color=&quot;#ff0000&quot;&gt;점선 위는 anonymous 도 접근 가능&lt;/font&gt;" style="text;html=1;align=center;verticalAlign=middle;resizable=0;points=[];autosize=1;strokeColor=none;fillColor=none;" vertex="1" parent="wj4ukQUMfK4vD5jEf4c_-44">
          <mxGeometry x="500" y="410" width="210" height="30" as="geometry" />
        </mxCell>
        <mxCell id="wj4ukQUMfK4vD5jEf4c_-80" value="" style="endArrow=classic;html=1;rounded=0;edgeStyle=orthogonalEdgeStyle;" edge="1" parent="wj4ukQUMfK4vD5jEf4c_-44" target="wj4ukQUMfK4vD5jEf4c_-45">
          <mxGeometry width="50" height="50" relative="1" as="geometry">
            <mxPoint x="350" as="sourcePoint" />
            <mxPoint x="270" y="90" as="targetPoint" />
          </mxGeometry>
        </mxCell>
        <mxCell id="wj4ukQUMfK4vD5jEf4c_-81" value="" style="endArrow=classic;html=1;rounded=0;edgeStyle=orthogonalEdgeStyle;" edge="1" parent="wj4ukQUMfK4vD5jEf4c_-44" target="wj4ukQUMfK4vD5jEf4c_-46">
          <mxGeometry width="50" height="50" relative="1" as="geometry">
            <mxPoint x="360" as="sourcePoint" />
            <mxPoint x="490" y="50" as="targetPoint" />
          </mxGeometry>
        </mxCell>
        <mxCell id="wj4ukQUMfK4vD5jEf4c_-82" value="&lt;font color=&quot;#ff1212&quot;&gt;점선 아래는 로그인한 회원만 접근 가능&lt;/font&gt;" style="text;html=1;align=center;verticalAlign=middle;resizable=0;points=[];autosize=1;strokeColor=none;fillColor=none;" vertex="1" parent="wj4ukQUMfK4vD5jEf4c_-44">
          <mxGeometry x="480" y="385" width="230" height="30" as="geometry" />
        </mxCell>
      </root>
    </mxGraphModel>
  </diagram>
</mxfile>
